<svg xmlns="http://www.w3.org/2000/svg" width="310.81" height="454.008" viewBox="0 0 310.81 454.008">
  <g id="Group_128" data-name="Group 128" transform="translate(-837.27 -1245)">
    <path id="Path_117" data-name="Path 117" d="M349.95,53a36.89,36.89,0,0,0-36.863,36.863v4.359h-8.172A39.409,39.409,0,0,0,265.6,133.624a9.106,9.106,0,0,0,9.078,9.078h150.55a9.049,9.049,0,0,0,9.082-9.078,39.409,39.409,0,0,0-39.316-39.406h-8.172V89.863A36.894,36.894,0,0,0,349.954,53Z" transform="translate(642.672 1192.004)"/>
    <path id="Path_118" data-name="Path 118" d="M203.68,124.55a9.047,9.047,0,0,0-9.078,9.082l0,364.29A9.107,9.107,0,0,0,203.676,507h292.65a9.1,9.1,0,0,0,9.078-9.082l0-364.29a9.049,9.049,0,0,0-9.078-9.082H451.654a49.838,49.838,0,0,1,.816,9.082,27.317,27.317,0,0,1-27.238,27.238H274.682a27.323,27.323,0,0,1-27.242-27.238,49.87,49.87,0,0,1,.816-9.082ZM350.03,225a97.381,97.381,0,1,1-97.379,97.379A97.494,97.494,0,0,1,350.03,225Z" transform="translate(642.672 1192.004)"/>
    <path id="Path_119" data-name="Path 119" d="M350.02,401.6A79.221,79.221,0,1,0,270.8,322.377,79.312,79.312,0,0,0,350.02,401.6Zm-41.4-83.316a9.077,9.077,0,0,1,12.84,0l15.359,15.359,41.766-41.773a9.079,9.079,0,0,1,12.84,12.84l-48.184,48.2a9.077,9.077,0,0,1-12.84,0l-21.777-21.781a9.073,9.073,0,0,1,0-12.84Z" transform="translate(642.672 1192.004)"/>
  </g>
</svg>
