<svg xmlns="http://www.w3.org/2000/svg" width="553.02" height="500.741" viewBox="0 0 553.02 500.741">
  <g id="Group_4" data-name="Group 4" transform="translate(-1587 1171)">
    <path id="Path_11" data-name="Path 11" d="M434.262-1207.086c-3.777,4.243-5.433,10.194-5.019,17.749.414,8.279,3.467,14.178,11.177,21.681,6.261,6.106,11.488,9.883,31.72,22.716,42.069,26.753,64.579,39.741,89.675,51.694,22.251,10.608,38.4,16.921,80.206,31.461,46.726,16.248,53.919,19.094,71.668,28.357,26.338,13.764,41.448,27.477,46.623,42.38,1.294,3.726,1.5,5.071,1.5,9.935s-.207,6.209-1.552,10.194c-3.519,10.453-9.056,18.318-18.991,26.908-5.9,5.175-8.538,6.986-19.042,13.143-4.243,2.484-10.3,6.054-13.454,7.917a90.16,90.16,0,0,0-19.663,15.162,52.156,52.156,0,0,0-11.384,17.128c-3.363,8.228-3.622,9.832-3.622,22.665,0,10.763.1,11.9,1.19,15.006,2.484,7.3,6.313,10.763,12.264,11.281,6.675.569,13.143-2.38,24.113-10.918,10.97-8.486,12.16-9.262,31.513-19.508,17.49-9.262,28.357-15.886,33.169-20.129a68.616,68.616,0,0,0,6.83-7.969,96.159,96.159,0,0,1,8.124-9.366c6.106-5.744,15.317-11.074,21.164-12.212a160.467,160.467,0,0,0,16.248-4.76c8.176-2.95,16.61-12.005,20.543-22.2,5.278-13.764,6.882-30.944,4.657-50.762a192.266,192.266,0,0,0-22.406-71.564c-9.211-16.662-21.164-28.822-33.324-33.893-5.226-2.173-12.212-2.639-19.612-1.294-4.4.776-6.882.88-17.283.621-13.247-.362-30.013-1.5-40.62-2.743-5.847-.673-29.236-4.4-36.739-5.847-48.382-9.366-104.474-27.374-151.615-48.589-16.145-7.244-55.161-26.6-64.941-32.186-13.92-7.917-27.011-13.971-30.271-13.971A4.786,4.786,0,0,0,434.262-1207.086Z" transform="translate(1285.127 38)" fill="#fff"/>
    <path id="Path_12" data-name="Path 12" d="M556.208-1000.2c-4.243,1.552-6.417,11.229-4.347,19.2a24.5,24.5,0,0,0,10.246,15.058c13.092,9.314,26.6,11.539,61.888,10.194,8.383-.362,23.286-.828,33.169-1.087,9.832-.259,18.214-.569,18.628-.724.362-.1,1.345-.362,2.173-.518,1.242-.31,1.4-.569,1.4-2.38,0-1.966-.1-2.122-2.691-3.415-1.5-.776-8.072-3.57-14.644-6.261-21.371-8.8-30.271-12.885-45.277-20.853-10.97-5.847-19.456-8.124-32.6-8.849C567.178-1000.773,558.123-1000.877,556.208-1000.2Z" transform="translate(1226.31 -62.544)" fill="#fff"/>
    <path id="Path_13" data-name="Path 13" d="M345.4-952.132c-4.088.673-11.488,4.709-17.956,9.832-3.26,2.587-7.555,5.8-9.573,7.141-4.14,2.846-17.542,10.4-29.236,16.61-10.918,5.8-22.147,12.626-26.132,15.938a57.814,57.814,0,0,0-7.658,8.538,92.445,92.445,0,0,1-7.917,9.211c-6.365,6.106-15.368,11.229-22.716,12.936-6.261,1.449-15.472,4.45-18.628,6.054-4.761,2.38-12.16,10.453-15.265,16.662-3.1,6.106-5.8,16.4-6.779,25.821-.776,7.3-.311,26.442.776,34.2a218.87,218.87,0,0,0,9.314,38.4c11.695,33.169,28.874,55.989,47.192,62.612,4.295,1.552,11.125,1.811,19.042.673,5.64-.776,7.917-.828,20.543-.31,29.081,1.138,39.689,2.38,71.875,8.331,44.553,8.176,96.092,24.062,141.783,43.725,22.3,9.573,61.784,28.874,79.43,38.809,12.419,7.037,17.49,9.47,23.441,11.436,4.036,1.345,4.295,1.345,5.226.517,5.123-4.657,7.814-15.213,6.054-23.492-1.5-7.193-4.864-12.574-12.057-19.249-6.261-5.9-14.489-11.384-51.125-34.256-51.177-31.927-83-47.3-134.539-64.941-2.846-.983-9.366-3.26-14.489-5.071s-14.437-5.071-20.647-7.244c-24.372-8.435-37.567-13.971-52.729-22.1-15.834-8.435-25.769-15.42-33.583-23.648-12.005-12.574-15.886-25.252-11.643-37.567,3.312-9.469,6.882-15.006,14.851-23.079,7.4-7.5,11.436-10.349,27.943-20.026,15.265-8.9,20.233-12.315,26.235-17.9a57.888,57.888,0,0,0,15.213-23.441c1.708-5.071,1.708-5.123,1.915-16.714.207-12.419-.259-16.352-2.432-20.647C357.975-950.476,352.335-953.271,345.4-952.132Z" transform="translate(1403.845 -85.83)" fill="#fff"/>
    <path id="Path_14" data-name="Path 14" d="M723.616-905.224c-12.419.569-38.188.724-53.039.31-11.125-.259-11.539-.1-13.713,5.123a71.014,71.014,0,0,0-5.433,22.1q-1.087,10.867,13.661,13.506c6.468,1.138,38.137.931,54.126-.31,7.141-.569,17.593-1.294,23.286-1.552s11.28-.621,12.419-.725c1.138-.155,6.365-.517,11.643-.828,16.041-.931,23.492-1.552,40.155-3.364,6.21-.673,12.367-1.915,13.092-2.587a6.863,6.863,0,0,0,.311-2.432c0-1.915-.311-2.38-2.949-4.812a53.7,53.7,0,0,0-7.814-5.33c-5.382-3-25.511-12.574-31.1-14.8C766.461-905.638,754.767-906.57,723.616-905.224Z" transform="translate(1177.918 -108.314)" fill="#fff"/>
    <path id="Path_15" data-name="Path 15" d="M575.9-624.616c-.569.259-24.941,1.863-46.83,3.1-28.408,1.656-62.25,4.812-66.8,6.21a3.111,3.111,0,0,0-1.552,1.4c-.466.88-.207,1.345,1.966,3.415,3.415,3.26,9.211,6.623,21.474,12.367,22.044,10.349,25.821,11.539,40.31,12.626,8.383.621,17.542.362,44.036-1.19,5.64-.31,13.971-.414,18.628-.207,24.993.983,27.994.983,29.909-.052,2.38-1.242,4.14-4.864,6.468-13.3,2.9-10.66,3-14.851.414-17.956-2.018-2.38-4.968-4.036-9.366-5.226-3.571-.983-5.64-1.087-21.061-1.242C584.131-624.771,576.214-624.771,575.9-624.616Z" transform="translate(1270.003 -243.931)" fill="#fff"/>
    <path id="Path_16" data-name="Path 16" d="M697.228-535.485c-2.691.1-8.641.414-13.2.724-4.554.362-16.662.776-26.959.983-10.3.259-18.939.569-19.3.776-1.087.673.414,2.329,3.57,3.933,1.708.828,10.453,4.605,19.508,8.331,10.194,4.191,22.768,9.883,33.014,14.955,17.076,8.486,20.336,9.728,28.719,11.125,10.194,1.656,32.91,2.328,36.015,1.035,2.122-.88,3.57-3.674,4.45-8.538.621-3.726-.259-8.59-2.535-13.35-4.243-9-17.49-16.766-32.341-18.939C722.635-535.278,706.542-535.8,697.228-535.485Z" transform="translate(1184.642 -286.956)" fill="#fff"/>
  </g>
</svg>
