<svg xmlns="http://www.w3.org/2000/svg" width="55.134" height="86.021" viewBox="0 0 55.134 86.021">
  <g id="Group_3" data-name="Group 3" transform="translate(128.814 -1544)">
    <path id="Path_10" data-name="Path 10" d="M211.393,34.845a1.378,1.378,0,0,1-1.372,1.379h-23.3a1.378,1.378,0,0,1-1.373-1.379v-.971h26.046Zm-.654,25.806-3.47,3.4a.247.247,0,0,0-.071.217l.82,4.8a3.586,3.586,0,0,1-5.209,3.8l-4.291-2.267a.242.242,0,0,0-.227,0L194,72.875a3.553,3.553,0,0,1-3.781-.275,3.6,3.6,0,0,1-1.428-3.53l.82-4.8a.247.247,0,0,0-.07-.217l-3.471-3.4a3.613,3.613,0,0,1,1.99-6.155l4.8-.7a.245.245,0,0,0,.184-.134l2.145-4.369a3.582,3.582,0,0,1,6.439,0l2.145,4.368a.245.245,0,0,0,.184.135l4.8.7a3.614,3.614,0,0,1,1.99,6.155ZM225.662.751a1.67,1.67,0,0,0-1.4-.759H205.348a1.673,1.673,0,0,0-1.535,1.013l-3.626,8.411,9.094,21.094h-3.636L192.927,1a1.673,1.673,0,0,0-1.535-1.013H172.477a1.671,1.671,0,0,0-1.4.759,1.69,1.69,0,0,0-.137,1.592L183.084,30.51h-3.136a1.682,1.682,0,0,0,0,3.363H182v.971a4.741,4.741,0,0,0,4.064,4.7,24.767,24.767,0,1,0,24.67-.008,4.742,4.742,0,0,0,4.006-4.688v-.971h2.053a1.682,1.682,0,0,0,0-3.363h-3.136L225.8,2.342A1.69,1.69,0,0,0,225.663.75ZM208.269,57.823l-4.8-.7a3.593,3.593,0,0,1-2.7-1.974l-2.145-4.369a.244.244,0,0,0-.439,0l-2.145,4.369a3.592,3.592,0,0,1-2.7,1.974l-4.8.7a.246.246,0,0,0-.136.419l3.471,3.4a3.618,3.618,0,0,1,1.033,3.194l-.819,4.8a.224.224,0,0,0,.1.24.221.221,0,0,0,.258.019l4.29-2.267a3.572,3.572,0,0,1,3.342,0l4.29,2.267a.245.245,0,0,0,.354-.259l-.819-4.8a3.618,3.618,0,0,1,1.033-3.194l3.471-3.4a.225.225,0,0,0,.061-.252.223.223,0,0,0-.2-.167" transform="translate(-299.618 1544.008)" fill-rule="evenodd"/>
  </g>
</svg>
